<mxfile host="app.diagrams.net" agent="Mozilla/5.0 (Windows NT 10.0; Win64; x64) AppleWebKit/537.36 (KHTML, like Gecko) Chrome/140.0.0.0 Safari/537.36 Edg/140.0.0.0" version="28.2.4">
  <diagram name="PÃ¡gina-1" id="XRwbV_xRmw4b8t7DMlrE">
    <mxGraphModel dx="913" dy="915" grid="1" gridSize="10" guides="1" tooltips="1" connect="1" arrows="1" fold="1" page="1" pageScale="1" pageWidth="827" pageHeight="1169" math="0" shadow="0">
      <root>
        <mxCell id="0" />
        <mxCell id="1" parent="0" />
        <mxCell id="-mFLMHEObHaP8g4jkk_j-1" value="API REST (MVC Layers)" style="swimlane;whiteSpace=wrap;html=1;fillColor=none;" vertex="1" parent="1">
          <mxGeometry x="268" y="400" width="262" height="390" as="geometry" />
        </mxCell>
        <mxCell id="-mFLMHEObHaP8g4jkk_j-12" value="" style="swimlane;startSize=0;fillColor=light-dark(#FFFFFF,#FFFFFF);" vertex="1" parent="-mFLMHEObHaP8g4jkk_j-1">
          <mxGeometry x="29" y="50" width="193" height="100" as="geometry" />
        </mxCell>
        <mxCell id="-mFLMHEObHaP8g4jkk_j-13" value="Controller&lt;div&gt;&lt;font style=&quot;font-size: 8px;&quot;&gt;create, approve, reject&lt;/font&gt;&lt;/div&gt;" style="text;html=1;align=center;verticalAlign=middle;resizable=0;points=[];autosize=1;strokeColor=none;fillColor=none;" vertex="1" parent="-mFLMHEObHaP8g4jkk_j-12">
          <mxGeometry x="45" y="30" width="100" height="40" as="geometry" />
        </mxCell>
        <mxCell id="-mFLMHEObHaP8g4jkk_j-21" value="" style="image;aspect=fixed;html=1;points=[];align=center;fontSize=12;image=img/lib/azure2/general/Website_Power.svg;" vertex="1" parent="-mFLMHEObHaP8g4jkk_j-12">
          <mxGeometry x="145" y="30" width="34" height="34" as="geometry" />
        </mxCell>
        <mxCell id="-mFLMHEObHaP8g4jkk_j-14" value="" style="swimlane;startSize=0;fillColor=light-dark(#FFFFFF,#FFFFFF);" vertex="1" parent="-mFLMHEObHaP8g4jkk_j-1">
          <mxGeometry x="29" y="160" width="190" height="100" as="geometry" />
        </mxCell>
        <mxCell id="-mFLMHEObHaP8g4jkk_j-15" value="Service" style="text;html=1;align=center;verticalAlign=middle;resizable=0;points=[];autosize=1;strokeColor=none;fillColor=none;" vertex="1" parent="-mFLMHEObHaP8g4jkk_j-14">
          <mxGeometry x="65" y="35" width="60" height="30" as="geometry" />
        </mxCell>
        <mxCell id="-mFLMHEObHaP8g4jkk_j-27" value="" style="shape=image;html=1;verticalLabelPosition=bottom;verticalAlign=top;imageAspect=1;aspect=fixed;image=img/clipart/Gear_128x128.png" vertex="1" parent="-mFLMHEObHaP8g4jkk_j-14">
          <mxGeometry x="125" y="24.75" width="43.05" height="50.5" as="geometry" />
        </mxCell>
        <mxCell id="-mFLMHEObHaP8g4jkk_j-17" value="" style="swimlane;startSize=0;fillColor=light-dark(#FFFFFF,#FFFFFF);" vertex="1" parent="-mFLMHEObHaP8g4jkk_j-1">
          <mxGeometry x="29" y="270" width="194" height="100" as="geometry" />
        </mxCell>
        <mxCell id="-mFLMHEObHaP8g4jkk_j-18" value="Repository" style="text;html=1;align=center;verticalAlign=middle;resizable=0;points=[];autosize=1;strokeColor=none;fillColor=none;" vertex="1" parent="-mFLMHEObHaP8g4jkk_j-17">
          <mxGeometry x="55" y="35" width="80" height="30" as="geometry" />
        </mxCell>
        <mxCell id="-mFLMHEObHaP8g4jkk_j-20" value="" style="image;aspect=fixed;html=1;points=[];align=center;fontSize=12;image=img/lib/azure2/general/Folder_Blank.svg;" vertex="1" parent="-mFLMHEObHaP8g4jkk_j-17">
          <mxGeometry x="135" y="35" width="35.73" height="29" as="geometry" />
        </mxCell>
        <mxCell id="-mFLMHEObHaP8g4jkk_j-23" value="db_saga (usuarios, solicitudes)" style="strokeWidth=2;html=1;shape=mxgraph.flowchart.database;whiteSpace=wrap;fillColor=none;" vertex="1" parent="1">
          <mxGeometry x="320" y="890" width="130" height="140" as="geometry" />
        </mxCell>
        <mxCell id="-mFLMHEObHaP8g4jkk_j-22" value="" style="verticalLabelPosition=bottom;aspect=fixed;html=1;shape=mxgraph.salesforce.data;fillColorStyles=fillColor2,fillColor3,fillColor4;fillColor2=#032d60;fillColor3=#0d9dda;fillColor4=#ffffff;fillColor=none;strokeColor=none;" vertex="1" parent="1">
          <mxGeometry x="368.8" y="980" width="32.4" height="40" as="geometry" />
        </mxCell>
        <mxCell id="-mFLMHEObHaP8g4jkk_j-26" value="Client (API Consumer)" style="image;aspect=fixed;html=1;points=[];align=center;fontSize=12;image=img/lib/azure2/intune/Devices.svg;" vertex="1" parent="1">
          <mxGeometry x="310" y="110" width="192.67" height="170" as="geometry" />
        </mxCell>
        <mxCell id="-mFLMHEObHaP8g4jkk_j-28" value="" style="html=1;shadow=0;dashed=0;align=center;verticalAlign=middle;shape=mxgraph.arrows2.arrow;dy=0.6;dx=40;direction=south;notch=0;fillColor=none;" vertex="1" parent="1">
          <mxGeometry x="432.67" y="310" width="70" height="60" as="geometry" />
        </mxCell>
        <mxCell id="-mFLMHEObHaP8g4jkk_j-29" value="" style="html=1;shadow=0;dashed=0;align=center;verticalAlign=middle;shape=mxgraph.arrows2.arrow;dy=0.6;dx=40;direction=south;notch=0;fillColor=none;" vertex="1" parent="1">
          <mxGeometry x="350" y="780" width="70" height="80" as="geometry" />
        </mxCell>
        <mxCell id="-mFLMHEObHaP8g4jkk_j-30" value="HTTP Request (JSON)" style="text;html=1;align=center;verticalAlign=middle;resizable=0;points=[];autosize=1;strokeColor=none;fillColor=none;" vertex="1" parent="1">
          <mxGeometry x="480" y="340" width="150" height="30" as="geometry" />
        </mxCell>
        <mxCell id="-mFLMHEObHaP8g4jkk_j-32" value="" style="html=1;shadow=0;dashed=0;align=center;verticalAlign=middle;shape=mxgraph.arrows2.arrow;dy=0.6;dx=40;direction=south;notch=0;rotation=-180;fillColor=none;" vertex="1" parent="1">
          <mxGeometry x="310" y="310" width="70" height="60" as="geometry" />
        </mxCell>
        <mxCell id="-mFLMHEObHaP8g4jkk_j-33" value="HTTP Response (JSON)" style="text;html=1;align=center;verticalAlign=middle;resizable=0;points=[];autosize=1;strokeColor=none;fillColor=none;" vertex="1" parent="1">
          <mxGeometry x="160" y="340" width="160" height="30" as="geometry" />
        </mxCell>
        <mxCell id="-mFLMHEObHaP8g4jkk_j-34" value="SQL Query / Result" style="text;html=1;align=center;verticalAlign=middle;resizable=0;points=[];autosize=1;strokeColor=none;fillColor=none;" vertex="1" parent="1">
          <mxGeometry x="400" y="838" width="130" height="30" as="geometry" />
        </mxCell>
      </root>
    </mxGraphModel>
  </diagram>
</mxfile>
